<mxfile host="app.diagrams.net" agent="Mozilla/5.0 (Windows NT 10.0; Win64; x64) AppleWebKit/537.36 (KHTML, like Gecko) Chrome/128.0.0.0 Safari/537.36 OPR/114.0.0.0" version="24.8.2">
  <diagram name="Page-1" id="M433D-oMTYftD40BpdfY">
    <mxGraphModel grid="1" page="1" gridSize="10" guides="1" tooltips="1" connect="1" arrows="1" fold="1" pageScale="1" pageWidth="850" pageHeight="1100" math="0" shadow="0">
      <root>
        <mxCell id="0" />
        <mxCell id="1" parent="0" />
        <mxCell id="3gjl-JWJIVJtsuAagSHo-13" style="edgeStyle=none;rounded=0;orthogonalLoop=1;jettySize=auto;html=1;exitX=0.5;exitY=1;exitDx=0;exitDy=0;entryX=0.5;entryY=0;entryDx=0;entryDy=0;" edge="1" parent="1" source="3gjl-JWJIVJtsuAagSHo-1" target="3gjl-JWJIVJtsuAagSHo-10">
          <mxGeometry relative="1" as="geometry" />
        </mxCell>
        <mxCell id="3gjl-JWJIVJtsuAagSHo-14" style="edgeStyle=none;rounded=0;orthogonalLoop=1;jettySize=auto;html=1;exitX=0.75;exitY=1;exitDx=0;exitDy=0;entryX=0.25;entryY=0;entryDx=0;entryDy=0;" edge="1" parent="1" source="3gjl-JWJIVJtsuAagSHo-1" target="3gjl-JWJIVJtsuAagSHo-11">
          <mxGeometry relative="1" as="geometry" />
        </mxCell>
        <mxCell id="3gjl-JWJIVJtsuAagSHo-1" value="tank class" style="rounded=1;whiteSpace=wrap;html=1;fillColor=#dae8fc;strokeColor=#6c8ebf;" vertex="1" parent="1">
          <mxGeometry x="90" y="40" width="120" height="60" as="geometry" />
        </mxCell>
        <mxCell id="3gjl-JWJIVJtsuAagSHo-2" value="weapon class" style="rounded=1;whiteSpace=wrap;html=1;fillColor=#d5e8d4;strokeColor=#82b366;" vertex="1" parent="1">
          <mxGeometry x="580" y="40" width="120" height="60" as="geometry" />
        </mxCell>
        <mxCell id="3gjl-JWJIVJtsuAagSHo-24" style="edgeStyle=none;rounded=0;orthogonalLoop=1;jettySize=auto;html=1;exitX=0.5;exitY=1;exitDx=0;exitDy=0;" edge="1" parent="1" source="3gjl-JWJIVJtsuAagSHo-4" target="3gjl-JWJIVJtsuAagSHo-23">
          <mxGeometry relative="1" as="geometry" />
        </mxCell>
        <mxCell id="3gjl-JWJIVJtsuAagSHo-4" value="bullet" style="rounded=0;whiteSpace=wrap;html=1;" vertex="1" parent="1">
          <mxGeometry x="540" y="130" width="75" height="30" as="geometry" />
        </mxCell>
        <mxCell id="3gjl-JWJIVJtsuAagSHo-5" value="bomb" style="rounded=0;whiteSpace=wrap;html=1;" vertex="1" parent="1">
          <mxGeometry x="660" y="130" width="80" height="30" as="geometry" />
        </mxCell>
        <mxCell id="3gjl-JWJIVJtsuAagSHo-6" style="edgeStyle=none;rounded=0;orthogonalLoop=1;jettySize=auto;html=1;exitX=0.25;exitY=1;exitDx=0;exitDy=0;entryX=0.641;entryY=-0.029;entryDx=0;entryDy=0;entryPerimeter=0;" edge="1" parent="1" source="3gjl-JWJIVJtsuAagSHo-2" target="3gjl-JWJIVJtsuAagSHo-4">
          <mxGeometry relative="1" as="geometry" />
        </mxCell>
        <mxCell id="3gjl-JWJIVJtsuAagSHo-7" style="edgeStyle=none;rounded=0;orthogonalLoop=1;jettySize=auto;html=1;exitX=0.75;exitY=1;exitDx=0;exitDy=0;entryX=0.306;entryY=-0.016;entryDx=0;entryDy=0;entryPerimeter=0;" edge="1" parent="1" source="3gjl-JWJIVJtsuAagSHo-2" target="3gjl-JWJIVJtsuAagSHo-5">
          <mxGeometry relative="1" as="geometry" />
        </mxCell>
        <mxCell id="3gjl-JWJIVJtsuAagSHo-9" value="player1" style="rounded=0;whiteSpace=wrap;html=1;" vertex="1" parent="1">
          <mxGeometry x="-10" y="130" width="90" height="30" as="geometry" />
        </mxCell>
        <mxCell id="3gjl-JWJIVJtsuAagSHo-10" value="player2" style="rounded=0;whiteSpace=wrap;html=1;" vertex="1" parent="1">
          <mxGeometry x="105" y="130" width="90" height="30" as="geometry" />
        </mxCell>
        <mxCell id="3gjl-JWJIVJtsuAagSHo-11" value="player3" style="rounded=0;whiteSpace=wrap;html=1;" vertex="1" parent="1">
          <mxGeometry x="240" y="130" width="90" height="30" as="geometry" />
        </mxCell>
        <mxCell id="3gjl-JWJIVJtsuAagSHo-12" style="edgeStyle=none;rounded=0;orthogonalLoop=1;jettySize=auto;html=1;exitX=0.25;exitY=1;exitDx=0;exitDy=0;entryX=0.607;entryY=-0.003;entryDx=0;entryDy=0;entryPerimeter=0;" edge="1" parent="1" source="3gjl-JWJIVJtsuAagSHo-1" target="3gjl-JWJIVJtsuAagSHo-9">
          <mxGeometry relative="1" as="geometry" />
        </mxCell>
        <mxCell id="3gjl-JWJIVJtsuAagSHo-19" value="&lt;div&gt;&lt;b&gt;tank&lt;/b&gt;&lt;/div&gt;properties:&lt;div&gt;1. Position&lt;/div&gt;&lt;div&gt;2. angle(hoko)&lt;/div&gt;&lt;div&gt;3. isAlive&lt;/div&gt;&lt;div&gt;&lt;br&gt;&lt;/div&gt;&lt;div&gt;methods:&lt;/div&gt;&lt;div&gt;1.Move(keybaord input)&lt;/div&gt;&lt;div&gt;2. Shoot&lt;/div&gt;&lt;div&gt;3.Check(isblocked)&lt;br&gt;&lt;/div&gt;&lt;div&gt;4.uheh()&lt;/div&gt;&lt;div&gt;&lt;br&gt;&lt;/div&gt;" style="rounded=0;whiteSpace=wrap;html=1;" vertex="1" parent="1">
          <mxGeometry x="-220" y="40" width="150" height="200" as="geometry" />
        </mxCell>
        <mxCell id="3gjl-JWJIVJtsuAagSHo-20" value="Map wall" style="rounded=1;whiteSpace=wrap;html=1;fillColor=#eeeeee;strokeColor=#36393d;" vertex="1" parent="1">
          <mxGeometry x="365" y="40" width="120" height="60" as="geometry" />
        </mxCell>
        <mxCell id="3gjl-JWJIVJtsuAagSHo-21" value="&lt;b&gt;Weapon&lt;/b&gt;&lt;div&gt;&lt;b&gt;&lt;br&gt;&lt;/b&gt;&lt;div&gt;&lt;b&gt;properties&lt;/b&gt;:&lt;br&gt;&lt;div&gt;1.Damageamount&lt;/div&gt;&lt;div&gt;2.timer&lt;/div&gt;&lt;div&gt;3.position&lt;/div&gt;&lt;/div&gt;&lt;div&gt;&lt;b&gt;methods:&lt;/b&gt;&lt;/div&gt;&lt;div&gt;1.queue_free(timer)&lt;/div&gt;&lt;div&gt;2.damage&lt;/div&gt;&lt;div&gt;3.inputkey(bullet , bomb)&lt;/div&gt;&lt;div&gt;4.to collect(bomb)&lt;/div&gt;&lt;div&gt;5.&lt;/div&gt;&lt;/div&gt;" style="rounded=0;whiteSpace=wrap;html=1;" vertex="1" parent="1">
          <mxGeometry x="-220" y="250" width="150" height="180" as="geometry" />
        </mxCell>
        <mxCell id="3gjl-JWJIVJtsuAagSHo-22" value="radius" style="ellipse;whiteSpace=wrap;html=1;" vertex="1" parent="1">
          <mxGeometry x="655" y="185" width="90" height="80" as="geometry" />
        </mxCell>
        <mxCell id="3gjl-JWJIVJtsuAagSHo-23" value="angle,&lt;div&gt;direction&lt;/div&gt;" style="ellipse;whiteSpace=wrap;html=1;" vertex="1" parent="1">
          <mxGeometry x="531.88" y="185" width="91.25" height="80" as="geometry" />
        </mxCell>
        <mxCell id="3gjl-JWJIVJtsuAagSHo-25" style="edgeStyle=none;rounded=0;orthogonalLoop=1;jettySize=auto;html=1;exitX=0.5;exitY=1;exitDx=0;exitDy=0;entryX=0.5;entryY=0;entryDx=0;entryDy=0;" edge="1" parent="1" source="3gjl-JWJIVJtsuAagSHo-5" target="3gjl-JWJIVJtsuAagSHo-22">
          <mxGeometry relative="1" as="geometry" />
        </mxCell>
      </root>
    </mxGraphModel>
  </diagram>
</mxfile>
